<svg xmlns="http://www.w3.org/2000/svg" width="84" height="36" fill="none"><path fill="#000" d="M76.548 26.42c-.777 0-1.475-.147-2.097-.442a3.797 3.797 0 0 1-1.444-1.258 3.089 3.089 0 0 1-.535-1.77c0-.839.21-1.499.629-1.98.434-.482 1.14-.823 2.12-1.025.993-.202 2.344-.303 4.052-.303h1.048v1.235h-1.025c-.947 0-1.739.03-2.376.093-.636.062-1.14.17-1.514.326-.372.155-.636.357-.791.605-.156.249-.233.56-.233.932 0 .637.217 1.157.652 1.56.45.404 1.056.606 1.817.606.62 0 1.164-.147 1.63-.442a3.007 3.007 0 0 0 1.118-1.211c.28-.513.42-1.103.42-1.77V18.92c0-.963-.195-1.654-.583-2.073-.388-.435-1.025-.652-1.91-.652-.683 0-1.343.1-1.98.303-.636.186-1.289.496-1.956.931l-.653-1.374c.404-.28.862-.52 1.375-.722a8.023 8.023 0 0 1 1.607-.49 8.423 8.423 0 0 1 1.607-.162c.978 0 1.786.163 2.422.489.637.31 1.11.792 1.421 1.444.31.637.466 1.46.466 2.47v7.127h-1.77v-2.633h.21a3.357 3.357 0 0 1-.723 1.515c-.341.419-.768.745-1.28.978-.513.233-1.088.35-1.724.35ZM67.324 26.42c-1.133 0-2.112-.248-2.935-.745a5.031 5.031 0 0 1-1.91-2.073c-.434-.9-.652-1.941-.652-3.121 0-1.196.218-2.229.652-3.098a4.76 4.76 0 0 1 1.91-2.003c.823-.466 1.802-.7 2.935-.7.699 0 1.39.125 2.073.373.683.249 1.25.598 1.7 1.049l-.652 1.374a4.285 4.285 0 0 0-1.49-.955 4.239 4.239 0 0 0-1.514-.303c-1.18 0-2.089.373-2.726 1.118-.636.73-.955 1.786-.955 3.168 0 1.35.319 2.422.955 3.214.637.777 1.545 1.165 2.726 1.165.48 0 .986-.101 1.514-.303a4.14 4.14 0 0 0 1.49-.978l.652 1.374c-.45.45-1.024.808-1.723 1.072a5.964 5.964 0 0 1-2.05.372ZM57.112 12.072v-2.12h2.33v2.12h-2.33Zm.233 14.139V14.89h1.887v11.32h-1.887ZM44.34 26.21V9.79h1.886v7.616h-.302c.326-.9.854-1.576 1.584-2.026.745-.466 1.599-.7 2.562-.7.9 0 1.646.164 2.236.49.605.326 1.056.823 1.35 1.49.296.653.443 1.484.443 2.493v7.058h-1.886v-6.942c0-.698-.094-1.273-.28-1.723-.17-.45-.45-.784-.838-1.002-.373-.217-.862-.326-1.468-.326-.683 0-1.28.148-1.793.443a3.031 3.031 0 0 0-1.188 1.234c-.28.528-.42 1.15-.42 1.864v6.451H44.34ZM40.971 26.42c-1.335 0-2.337-.357-3.005-1.071-.667-.715-1.001-1.732-1.001-3.052v-5.94h-2.213v-1.466h2.213V11.42h1.886v3.47h3.587v1.468h-3.587v5.753c0 .885.187 1.56.56 2.026.372.45.978.676 1.816.676.249 0 .497-.031.745-.093.249-.062.474-.124.676-.186l.326 1.444c-.202.108-.497.21-.885.302-.388.093-.76.14-1.118.14ZM28.54 26.42c-1.103 0-2.058-.24-2.865-.722a4.957 4.957 0 0 1-1.887-2.026c-.435-.886-.652-1.926-.652-3.122 0-1.195.217-2.228.652-3.097.45-.886 1.08-1.569 1.887-2.05.807-.482 1.762-.722 2.864-.722 1.103 0 2.058.24 2.865.722.808.481 1.43 1.164 1.864 2.05.45.87.675 1.902.675 3.098 0 1.195-.225 2.236-.675 3.12a4.805 4.805 0 0 1-1.864 2.027c-.807.481-1.762.722-2.864.722Zm0-1.514c1.071 0 1.917-.372 2.538-1.118.637-.76.955-1.848.955-3.26 0-1.398-.318-2.47-.955-3.215-.62-.745-1.467-1.118-2.538-1.118-1.056 0-1.903.372-2.54 1.118-.636.745-.954 1.817-.954 3.214 0 1.413.318 2.5.955 3.261.636.745 1.483 1.118 2.538 1.118ZM20.759 26.42c-1.15 0-2.019-.342-2.61-1.025-.574-.683-.86-1.661-.86-2.934V9.788h1.886v12.532c0 .543.07 1.001.21 1.374.155.373.38.652.675.838.295.187.66.28 1.095.28.186 0 .364-.008.535-.023.187-.031.357-.07.513-.117l-.047 1.584c-.248.047-.489.085-.722.116a4.767 4.767 0 0 1-.675.047ZM9.21 26.34c-1.615 0-2.997-.341-4.146-1.025-1.15-.683-2.034-1.653-2.656-2.911-.605-1.258-.908-2.756-.908-4.495 0-1.74.303-3.23.908-4.473.622-1.257 1.507-2.228 2.656-2.911C6.213 9.842 7.594 9.5 9.21 9.5c1.133 0 2.181.179 3.144.536.963.357 1.77.877 2.423 1.56l-.746 1.56c-.714-.667-1.46-1.148-2.236-1.443-.76-.31-1.607-.466-2.539-.466-1.848 0-3.26.582-4.239 1.747-.978 1.164-1.467 2.803-1.467 4.915 0 2.111.489 3.757 1.467 4.937.978 1.165 2.391 1.747 4.24 1.747.931 0 1.777-.147 2.538-.442.777-.31 1.522-.8 2.236-1.468l.746 1.561c-.653.668-1.46 1.188-2.423 1.56-.963.358-2.01.536-3.144.536Z"/></svg>